<svg xmlns="http://www.w3.org/2000/svg" viewBox="0 0 320 320" role="img" aria-labelledby="title desc">
  <title id="title">Shad Khan avatar</title>
  <desc id="desc">A geometric monogram avatar for Shad Khan.</desc>
  <defs>
    <linearGradient id="paint" x1="48" y1="44" x2="282" y2="276" gradientUnits="userSpaceOnUse">
      <stop stop-color="#c84636" />
      <stop offset="0.52" stop-color="#5477d6" />
      <stop offset="1" stop-color="#18a999" />
    </linearGradient>
  </defs>
  <rect width="320" height="320" rx="160" fill="#101215" />
  <circle cx="160" cy="160" r="132" fill="url(#paint)" opacity="0.94" />
  <circle cx="160" cy="160" r="104" fill="#fbfbfa" opacity="0.92" />
  <path
    d="M202 106c-10-11-25-17-44-17-32 0-54 16-54 41 0 27 24 36 53 42 24 5 35 9 35 22 0 12-12 21-32 21-19 0-35-7-47-20l-21 22c15 17 38 27 67 27 35 0 60-17 60-44 0-29-24-39-56-46-22-5-33-8-33-21 0-11 10-18 27-18 14 0 25 4 35 14l20-23Z"
    fill="#17181c"
  />
</svg>
